<svg width="800" height="300" viewBox="0 0 800 300" fill="none" xmlns="http://www.w3.org/2000/svg">
<rect width="800" height="300" fill="white"/>
<g clip-path="url(#clip0_1_2)">
<path d="M290 60H110V240H290V60Z" fill="white"/>
<path d="M177.068 79.0309C134.387 87.6849 140.681 114.532 142.746 126.727C136.878 130.07 125.773 137.603 128.29 140.986C131.437 145.215 147.958 146.002 170.872 132.627C181.886 130.759 184.837 130.759 197.719 130.759L197.943 130.776C221.299 132.58 258.7 135.468 261.445 162.916C264.198 190.452 231.844 203.04 222.796 203.728C213.749 204.417 227.025 211.792 253.577 194.189C287.997 168.719 265.002 126.432 258.691 115.024C251.293 101.649 253.577 94.3723 231.254 82.4728C219.256 77.8508 196.638 75.0627 177.068 79.0309Z" fill="#55CCFF"/>
<path d="M136.944 149.247C126.874 149.09 127.766 141.674 127.897 140.003C129.765 146.844 152.679 140.003 171.364 132.43C202.538 124.465 240.99 135.676 250.725 142.363C284.834 172.638 248.695 204.288 221.95 205.497C221.924 205.498 221.898 205.497 221.873 205.495L213.334 204.641C213.162 204.624 212.988 204.695 212.873 204.824C193.679 226.319 189.782 226.844 184.441 230.22C184.378 230.259 184.304 230.287 184.231 230.299C174.557 231.822 174.51 230.699 174.417 228.511L174.416 228.499C174.414 228.442 174.421 228.382 174.437 228.327C176.045 222.811 181.905 223.223 185.623 208.449C187.421 201.307 183.689 190.78 181.296 186.322C177.068 180.323 187.352 179.949 189.754 183.666C193.884 190.059 196.244 192.025 199.785 194.582C212.151 203.514 227.455 193.933 234.457 189.397C234.486 189.379 234.512 189.358 234.537 189.334C239.696 184.36 240.49 181.604 239.72 174.501C239.714 174.45 239.701 174.397 239.681 174.35C232.508 157.106 223.963 154.059 213.946 149.05C191.229 140.298 183.788 142.92 173.724 142.363C161.038 142.953 150.712 147.87 136.944 149.247Z" fill="#D9D9D9"/>
<path d="M205.644 166.267C180.802 156.683 181.739 155.059 178.084 142.69C178.018 142.468 178.17 142.235 178.401 142.221C184.546 141.846 196.078 141.626 196.603 143.566C196.609 143.588 196.615 143.609 196.624 143.629L205.789 166.131C205.845 166.269 205.783 166.32 205.644 166.267Z" fill="#7BD7FF"/>
<path d="M257.019 112.27C248.955 97.814 236.958 81.686 197.916 76.9657C215.421 78.4408 225.648 72.7387 238.924 70.3785C249.09 68.5712 255.938 68.51 265.084 70.3785C274.229 72.247 266.755 77.7542 263.018 79.6227L262.981 79.6414C259.224 81.5195 250.648 85.8064 257.019 112.27Z" fill="#7BD7FF"/>
<path d="M197.818 129.575C209.002 138.435 214.827 145.424 249.545 140.994C233.701 126.13 233.118 123.275 197.818 129.575Z" fill="#7BD7FF"/>
<path d="M163.988 126.432C167.899 126.432 171.069 123.262 171.069 119.351C171.069 115.441 167.899 112.27 163.988 112.27C160.078 112.27 156.908 115.441 156.908 119.351C156.908 123.262 160.078 126.432 163.988 126.432Z" fill="#333333"/>
<path d="M164.775 121.318C166.513 121.318 167.922 119.909 167.922 118.171C167.922 116.433 166.513 115.024 164.775 115.024C163.037 115.024 161.628 116.433 161.628 118.171C161.628 119.909 163.037 121.318 164.775 121.318Z" fill="#ECECEC"/>
</g>
<path d="M371.062 145C371.062 136.417 368.833 130.229 364.375 126.438C361.625 124.146 358.25 123 354.25 123C348.042 123 343.396 125.729 340.312 131.188C338.188 135.021 337.125 139.646 337.125 145.062C337.125 153.562 339.354 159.667 343.812 163.375C346.604 165.667 350.021 166.812 354.062 166.812C360.479 166.812 365.188 163.979 368.188 158.312C370.104 154.646 371.062 150.208 371.062 145ZM344.188 145C344.188 138.417 345.667 133.75 348.625 131C350.208 129.542 352.062 128.812 354.188 128.812C358.521 128.812 361.458 131.5 363 136.875C363.667 139.25 364 141.979 364 145.062C364 151.896 362.417 156.604 359.25 159.188C357.75 160.396 356.021 161 354.062 161C349.646 161 346.688 158.312 345.188 152.938C344.521 150.646 344.188 148 344.188 145ZM388.5 161.5C386.917 161.5 385.396 161.146 383.938 160.438V148.062C383.938 143.979 385.125 141.25 387.5 139.875C388.25 139.417 389.083 139.188 390 139.188C392.292 139.188 394 140.5 395.125 143.125C395.792 144.75 396.125 146.667 396.125 148.875C396.125 155.333 394.521 159.333 391.312 160.875C390.438 161.292 389.5 161.5 388.5 161.5ZM383.875 178.562V166.188C385.625 166.604 387.208 166.812 388.625 166.812C393.833 166.812 397.708 164.562 400.25 160.062C401.958 157.021 402.812 153.271 402.812 148.812C402.812 142.979 401.146 138.75 397.812 136.125C395.979 134.667 393.896 133.938 391.562 133.938C388.271 133.979 385.625 135.438 383.625 138.312L383.438 134.75H377.438L377.375 178.562H383.875ZM431.875 163.625L429.938 159.25C427.104 160.75 424.438 161.5 421.938 161.5C418.229 161.5 415.729 159.646 414.438 155.938C414.062 154.729 413.812 153.417 413.688 152H432.5V150C432.5 139.625 428.708 134.271 421.125 133.938C420.833 133.938 420.562 133.938 420.312 133.938C415.771 133.938 412.271 135.771 409.812 139.438C407.896 142.271 406.938 145.833 406.938 150.125C406.938 156.792 409.021 161.562 413.188 164.438C415.521 166.021 418.229 166.812 421.312 166.812C425.021 166.771 428.542 165.708 431.875 163.625ZM420.25 139C423.167 139 424.979 140.667 425.688 144C425.854 144.958 425.938 145.979 425.938 147.062L413.812 147.188C414.438 142.521 416.167 139.833 419 139.125C419.417 139.042 419.833 139 420.25 139ZM464.5 161.688C463.083 161.896 462.292 161.375 462.125 160.125C462.083 159.833 462.062 159.521 462.062 159.188V144.75C462.062 139.75 460.396 136.438 457.062 134.812C455.812 134.229 454.438 133.938 452.938 133.938C449.271 133.979 446.417 135.688 444.375 139.062L444.25 134.75H438V166H444.5V149.438C444.5 144.521 445.812 141.312 448.438 139.812C449.271 139.354 450.125 139.125 451 139.125C453.292 139.125 454.729 140.458 455.312 143.125C455.479 143.833 455.562 144.604 455.562 145.438V159.625C455.646 164.333 457.812 166.708 462.062 166.75C462.854 166.75 463.75 166.646 464.75 166.438L464.5 161.688ZM470.562 123.812V166C477.688 166.125 481.479 166.188 481.938 166.188C489.896 166.312 495.333 163.021 498.25 156.312C499.625 153.104 500.312 149.333 500.312 145C500.312 135.333 497.417 128.896 491.625 125.688C488.958 124.271 485.792 123.583 482.125 123.625C480.625 123.667 478.229 123.708 474.938 123.75H474.875H474.812H474.75H474.688H474.625H474.562H474.5H474.438H474.375H474.312H474.25H474.188H474.125H474.062H474H473.938H473.875H473.812H473.75H473.688H473.625H473.562H473.5H473.438H473.375H473.312H473.25H473.188H473.125H473.062H473H472.938H472.875H472.812H472.75H472.688H472.625H472.562L472.5 123.812H472.438H472.375H472.312H472.25H472.188H472.125H472.062H472H471.938H471.875H471.812H471.75H471.688H471.625H471.562H471.5H471.438H471.375H471.312H471.25H471.188H471.125H471.062H471H470.938H470.875H470.812H470.75H470.688H470.562ZM482 160.5C479.917 160.5 478.312 160.479 477.188 160.438V129.375C478.354 129.333 480 129.312 482.125 129.312C487.917 129.312 491.479 132.667 492.812 139.375C493.146 141.125 493.312 143.021 493.312 145.062C493.229 155.312 489.458 160.458 482 160.5ZM518 161.5C514.833 161.5 512.708 159.583 511.625 155.75C511.208 154.167 511 152.375 511 150.375C511 145 512.396 141.542 515.188 140C516.104 139.5 517.083 139.25 518.125 139.25C521.375 139.25 523.5 141.292 524.5 145.375C524.875 146.875 525.062 148.583 525.062 150.5C525.062 156.042 523.604 159.521 520.688 160.938C519.854 161.312 518.958 161.5 518 161.5ZM518.25 133.938C512.875 133.938 508.958 136.188 506.5 140.688C505.042 143.438 504.312 146.708 504.312 150.5C504.312 157.417 506.375 162.208 510.5 164.875C512.542 166.167 514.958 166.812 517.75 166.812C523.5 166.812 527.542 164.396 529.875 159.562C531.083 156.979 531.688 153.917 531.688 150.375C531.688 143.167 529.542 138.271 525.25 135.688C523.25 134.521 520.917 133.938 518.25 133.938ZM545.25 166.75C546.833 166.75 548.458 166.5 550.125 166L548.875 161.125C548.125 161.375 547.438 161.5 546.812 161.5C545.146 161.417 544.292 160.25 544.25 158V120.688H537.75V158.625C537.75 163.583 539.854 166.271 544.062 166.688C544.479 166.729 544.875 166.75 545.25 166.75ZM565.625 161.5C564.042 161.5 562.521 161.146 561.062 160.438V148.062C561.062 143.979 562.25 141.25 564.625 139.875C565.375 139.417 566.208 139.188 567.125 139.188C569.417 139.188 571.125 140.5 572.25 143.125C572.917 144.75 573.25 146.667 573.25 148.875C573.25 155.333 571.646 159.333 568.438 160.875C567.562 161.292 566.625 161.5 565.625 161.5ZM561 178.562V166.188C562.75 166.604 564.333 166.812 565.75 166.812C570.958 166.812 574.833 164.562 577.375 160.062C579.083 157.021 579.938 153.271 579.938 148.812C579.938 142.979 578.271 138.75 574.938 136.125C573.104 134.667 571.021 133.938 568.688 133.938C565.396 133.979 562.75 135.438 560.75 138.312L560.562 134.75H554.562L554.5 178.562H561ZM612.625 161.688C611.25 161.854 610.458 161.375 610.25 160.25C610.208 159.917 610.188 159.562 610.188 159.188V144.875C610.188 139.833 608.521 136.479 605.188 134.812C603.938 134.229 602.562 133.938 601.062 133.938C597.604 133.979 594.771 135.521 592.562 138.562L592.625 120.688H586.125V166H592.625V149.25C592.625 144.375 593.917 141.208 596.5 139.75C597.292 139.333 598.125 139.125 599 139.125C601.292 139.125 602.771 140.417 603.438 143C603.604 143.792 603.688 144.625 603.688 145.5V159.625C603.688 164.833 606.229 167.208 611.312 166.75C611.854 166.667 612.375 166.583 612.875 166.5L612.625 161.688ZM625.062 166V134.75H618.562V166H625.062ZM626.062 125.625C626.062 123.5 625.188 122.104 623.438 121.438C622.896 121.271 622.375 121.188 621.875 121.188C620 121.188 618.729 122.021 618.062 123.688C617.812 124.312 617.688 124.958 617.688 125.625C617.688 127.875 618.562 129.333 620.312 130C620.812 130.167 621.312 130.25 621.812 130.25C623.688 130.25 624.979 129.417 625.688 127.75C625.938 127.083 626.062 126.375 626.062 125.625ZM659.688 161.688C658.271 161.896 657.479 161.375 657.312 160.125C657.271 159.833 657.25 159.521 657.25 159.188V144.75C657.25 139.75 655.583 136.438 652.25 134.812C651 134.229 649.625 133.938 648.125 133.938C644.458 133.979 641.604 135.688 639.562 139.062L639.438 134.75H633.188V166H639.688V149.438C639.688 144.521 641 141.312 643.625 139.812C644.458 139.354 645.312 139.125 646.188 139.125C648.479 139.125 649.917 140.458 650.5 143.125C650.667 143.833 650.75 144.604 650.75 145.438V159.625C650.833 164.333 653 166.708 657.25 166.75C658.042 166.75 658.938 166.646 659.938 166.438L659.688 161.688Z" fill="#55CCFF"/>
<defs>
<clipPath id="clip0_1_2">
<rect width="180" height="180" fill="white" transform="translate(110 60)"/>
</clipPath>
</defs>
</svg>
